<mxfile host="65bd71144e">
    <diagram id="asOWcDkwPhi5S2LJ47Lw" name="Page-1">
        <mxGraphModel dx="366" dy="484" grid="0" gridSize="10" guides="1" tooltips="1" connect="1" arrows="1" fold="1" page="1" pageScale="1" pageWidth="850" pageHeight="1100" math="0" shadow="0">
            <root>
                <mxCell id="0"/>
                <mxCell id="1" parent="0"/>
                <mxCell id="15" value="node" style="swimlane;fillColor=#6d8764;fontColor=#ffffff;strokeColor=#3A5431;" vertex="1" parent="1">
                    <mxGeometry x="84" y="72" width="202" height="402" as="geometry"/>
                </mxCell>
                <mxCell id="16" value="app.pod" style="swimlane;fillColor=#647687;fontColor=#ffffff;strokeColor=#314354;" vertex="1" parent="15">
                    <mxGeometry x="21" y="30" width="154" height="173" as="geometry"/>
                </mxCell>
                <mxCell id="18" value="container" style="swimlane;fillColor=#76608a;fontColor=#ffffff;strokeColor=#432D57;" vertex="1" parent="16">
                    <mxGeometry x="26" y="31" width="104" height="56" as="geometry"/>
                </mxCell>
                <mxCell id="19" value="ip.address" style="ellipse;whiteSpace=wrap;html=1;fillColor=#a0522d;fontColor=#ffffff;strokeColor=#6D1F00;" vertex="1" parent="16">
                    <mxGeometry x="41" y="147" width="76" height="26" as="geometry"/>
                </mxCell>
                <mxCell id="22" value="Sidecar/ monitoring" style="whiteSpace=wrap;html=1;" vertex="1" parent="16">
                    <mxGeometry x="32" y="100" width="92" height="41" as="geometry"/>
                </mxCell>
                <mxCell id="17" value="db.pod" style="swimlane;fillColor=#647687;fontColor=#ffffff;strokeColor=#314354;" vertex="1" parent="15">
                    <mxGeometry x="12.5" y="209" width="177" height="173" as="geometry"/>
                </mxCell>
                <mxCell id="20" value="ip.address" style="ellipse;whiteSpace=wrap;html=1;fillColor=#a0522d;fontColor=#ffffff;strokeColor=#6D1F00;" vertex="1" parent="17">
                    <mxGeometry x="37" y="147" width="76" height="26" as="geometry"/>
                </mxCell>
                <mxCell id="24" value="Service" style="ellipse;whiteSpace=wrap;html=1;fillColor=#e3c800;strokeColor=#B09500;fontColor=#000000;" vertex="1" parent="17">
                    <mxGeometry x="113" width="76" height="26" as="geometry"/>
                </mxCell>
                <mxCell id="23" value="Service" style="ellipse;whiteSpace=wrap;html=1;fillColor=#e3c800;strokeColor=#B09500;fontColor=#000000;" vertex="1" parent="15">
                    <mxGeometry x="126" y="28" width="76" height="26" as="geometry"/>
                </mxCell>
                <mxCell id="25" value="Ingress" style="ellipse;whiteSpace=wrap;html=1;fillColor=#fa6800;strokeColor=#C73500;fontColor=#000000;" vertex="1" parent="15">
                    <mxGeometry x="126" y="-2" width="76" height="26" as="geometry"/>
                </mxCell>
            </root>
        </mxGraphModel>
    </diagram>
</mxfile>